<svg xmlns="http://www.w3.org/2000/svg" xmlns:xlink="http://www.w3.org/1999/xlink" version="1.1" x="0px" y="0px" viewBox="0 0 450 562.5" style="enable-background:new 0 0 450 450;" xml:space="preserve"><g><g><path d="M194.6,218.7c-2.8,0-5-2.2-5-5V128c0-29.8-24.2-53.9-53.9-53.9S81.7,98.2,81.7,128v85.8c0,2.8-2.2,5-5,5s-5-2.2-5-5V128    c0-35.3,28.7-63.9,63.9-63.9s63.9,28.7,63.9,63.9v85.8C199.6,216.5,197.4,218.7,194.6,218.7z"/></g><g><path d="M395.2,429.2H21.6c-9.5,0-17.3-7.8-17.3-17.3c0-9.5,7.8-17.3,17.3-17.3h373.6c9.5,0,17.3,7.8,17.3,17.3    C412.5,421.4,404.8,429.2,395.2,429.2z M21.6,404.5c-4,0-7.3,3.3-7.3,7.3s3.3,7.3,7.3,7.3h373.6c4,0,7.3-3.3,7.3-7.3    s-3.3-7.3-7.3-7.3H21.6z"/></g><g><path d="M217.8,404.5H52.8c-9.6,0-17.3-7.8-17.3-17.3v-12.3c0-2.8,2.2-5,5-5h189.6c2.8,0,5,2.2,5,5v12.3    C235.1,396.7,227.3,404.5,217.8,404.5z M45.5,379.9v7.3c0,4,3.3,7.3,7.3,7.3h164.9c4,0,7.3-3.3,7.3-7.3v-7.3H45.5z"/></g><g><path d="M213.5,379.9c-2.8,0-5-2.2-5-5s2.2-5,5-5c2.4,0,4.4-2,4.4-4.4V272c0-2.4-1.9-4.4-4.4-4.4H57.1c-2.4,0-4.3,2-4.3,4.4v93.5    c0,2.4,1.9,4.4,4.3,4.4c2.8,0,5,2.2,5,5s-2.2,5-5,5c-7.9,0-14.3-6.4-14.3-14.4V272c0-7.9,6.4-14.4,14.3-14.4h156.4    c7.9,0,14.4,6.4,14.4,14.4v93.5C227.9,373.4,221.4,379.9,213.5,379.9z"/></g><g><path d="M373.6,404.5c-2.8,0-5-2.2-5-5s2.2-5,5-5c6.4,0,11.6-5.2,11.6-11.6s-5.2-11.6-11.6-11.6H263.9v28.3c0,2.8-2.2,5-5,5    s-5-2.2-5-5v-33.3c0-2.8,2.2-5,5-5h114.7c11.9,0,21.6,9.7,21.6,21.6S385.5,404.5,373.6,404.5z"/></g><g><path d="M397.8,371.2h-35.9c-2.8,0-5-2.2-5-5s2.2-5,5-5h35.9c6.4,0,11.6-5.2,11.6-11.6s-5.2-11.6-11.6-11.6h-33.1    c-2.8,0-5-2.2-5-5s2.2-5,5-5h33.1c11.9,0,21.6,9.7,21.6,21.6S409.7,371.2,397.8,371.2z M283.1,371.2c-2.8,0-5-2.2-5-5v-33.3    c0-2.8,2.2-5,5-5s5,2.2,5,5v33.3C288.1,369,285.8,371.2,283.1,371.2z"/></g><g><path d="M373.6,337.9H258.9c-2.8,0-5-2.2-5-5v-33.3c0-2.8,2.2-5,5-5h114.7c11.9,0,21.6,9.7,21.6,21.6S385.5,337.9,373.6,337.9z     M263.9,327.9h109.7c6.4,0,11.6-5.2,11.6-11.6s-5.2-11.6-11.6-11.6H263.9V327.9z"/></g><g><path d="M55.2,267.6c-2.8,0-5-2.2-5-5v-7c0-31.2,25.4-56.6,56.6-56.6h8.6c2.8,0,5,2.2,5,5s-2.2,5-5,5h-8.6    c-25.7,0-46.6,20.9-46.6,46.6v7C60.2,265.4,57.9,267.6,55.2,267.6z M215.4,260.6c-2.8,0-5-2.2-5-5c0-25.7-20.9-46.6-46.6-46.6    h-8.6c-2.8,0-5-2.2-5-5s2.2-5,5-5h8.6c31.2,0,56.6,25.4,56.6,56.6C220.4,258.4,218.2,260.6,215.4,260.6z"/></g><g><path d="M135.3,233.1c-13.7,0-24.9-11.2-24.9-24.9v-17.6c0-2.8,2.2-5,5-5s5,2.2,5,5v17.6c0,8.2,6.7,14.9,14.9,14.9    s14.9-6.7,14.9-14.9v-17.6c0-2.8,2.2-5,5-5s5,2.2,5,5v17.6C160.2,221.9,149,233.1,135.3,233.1z"/></g><g><path d="M135.3,200.9c-24.6,0-44.6-20-44.6-44.6v-26.7c0-2.8,2.2-5,5-5s5,2.2,5,5v26.7c0,19.1,15.5,34.6,34.6,34.6    s34.6-15.5,34.6-34.6v-29.2c0-2.8,2.2-5,5-5s5,2.2,5,5v29.2C179.9,180.9,159.9,200.9,135.3,200.9z"/></g><g><path d="M162.1,137.8c-6.6,0-13.3-2.9-20-8.8c-15.1-13.2-43.6,4.6-43.8,4.8c-2.3,1.5-5.4,0.8-6.9-1.5c-1.5-2.3-0.8-5.4,1.5-6.9    c1.4-0.9,35.1-22,55.8-3.9c5.1,4.5,9.9,6.6,14.3,6.3c4.9-0.4,7.8-3.8,7.9-3.9c1.7-2.1,4.9-2.5,7-0.8s2.5,4.9,0.8,7.1    c-0.6,0.7-5.6,6.7-14.7,7.5C163.4,137.8,162.8,137.8,162.1,137.8z"/></g><g><path d="M135.3,267.6c-2.8,0-5-2.2-5-5v-34.6c0-2.8,2.2-5,5-5s5,2.2,5,5v34.6C140.3,265.4,138.1,267.6,135.3,267.6z"/></g><g><path d="M135.3,351.1c-17.8,0-32.3-14.5-32.3-32.3s14.5-32.3,32.3-32.3c17.8,0,32.3,14.5,32.3,32.3S153.1,351.1,135.3,351.1z     M135.3,296.4c-12.3,0-22.3,10-22.3,22.3s10,22.3,22.3,22.3s22.3-10,22.3-22.3S147.6,296.4,135.3,296.4z"/></g><g><path d="M415.9,191.3H245c-16.7,0-30.3-13.6-30.3-30.3V52.6c0-16.7,13.6-30.3,30.3-30.3h170.9c16.7,0,30.3,13.6,30.3,30.3V161    C446.3,177.7,432.7,191.3,415.9,191.3z M245,32.3c-11.2,0-20.3,9.1-20.3,20.3V161c0,11.2,9.1,20.3,20.3,20.3h170.9    c11.2,0,20.3-9.1,20.3-20.3V52.6c0-11.2-9.1-20.3-20.3-20.3L245,32.3L245,32.3z"/></g><g><path d="M276.6,218.3c-4.4,0-8.5-1.7-11.5-4.8l-23.7-23.7c-2-1.9-2-5.1,0-7.1c2-1.9,5.1-1.9,7.1,0l23.7,23.7    c1.2,1.2,2.8,1.8,4.5,1.8s3.3-0.6,4.5-1.8l23.7-23.7c2-1.9,5.1-1.9,7.1,0s2,5.1,0,7.1l-23.7,23.7    C285.1,216.6,281,218.3,276.6,218.3z"/></g><g><g><path d="M412.7,170.8h-89c-2.8,0-5-2.2-5-5s2.2-5,5-5h89c2.8,0,5,2.2,5,5S415.4,170.8,412.7,170.8z"/></g><g><path d="M412.7,148.3h-89c-2.8,0-5-2.2-5-5s2.2-5,5-5h89c2.8,0,5,2.2,5,5S415.4,148.3,412.7,148.3z"/></g><g><g><path d="M290.1,170.8h-37.8c-7.4,0-13.4-6-13.4-13.4V56.3c0-7.4,6-13.4,13.4-13.4h37.8c7.4,0,13.4,6,13.4,13.4v101.1      C303.5,164.7,297.5,170.8,290.1,170.8z M252.3,52.8c-1.9,0-3.4,1.5-3.4,3.4v101.1c0,1.9,1.5,3.4,3.4,3.4h37.8      c1.9,0,3.4-1.5,3.4-3.4V56.3c0-1.9-1.5-3.4-3.4-3.4H252.3z"/></g><g><path d="M408.6,107.4h-80.9c-7.4,0-13.4-6-13.4-13.4V56.3c0-7.4,6-13.4,13.4-13.4h80.9c7.4,0,13.4,6,13.4,13.4v37.8      C422,101.4,416,107.4,408.6,107.4z M327.7,52.8c-1.8,0-3.4,1.6-3.4,3.4v37.8c0,1.8,1.6,3.4,3.4,3.4h80.9c1.9,0,3.4-1.5,3.4-3.4      V56.3c0-1.9-1.5-3.4-3.4-3.4H327.7z"/></g><g><path d="M412.7,125.8h-89c-2.8,0-5-2.2-5-5s2.2-5,5-5h89c2.8,0,5,2.2,5,5S415.4,125.8,412.7,125.8z"/></g></g></g></g><text x="0" y="465" fill="#000000" font-size="5px" font-weight="bold" font-family="'Helvetica Neue', Helvetica, Arial-Unicode, Arial, Sans-serif">Created by SAM Designs</text><text x="0" y="470" fill="#000000" font-size="5px" font-weight="bold" font-family="'Helvetica Neue', Helvetica, Arial-Unicode, Arial, Sans-serif">from the Noun Project</text></svg>